PathFileType	4	(X/Y/Z)	s05c0001.trc
DataRate	CameraRate	NumFrames	NumMarkers	Units	OrigDataRate	OrigDataStartFrame	OrigNumFrames
200	200	4	49	mm	200	1250	2000
Frame#	Time	racr			lacr			c7			jug			rlel			rdr			llel			ldr			s2			lic			ric			lasi			rasi			rpsi			lpsi			rgt			lgt			rth1			rth2			rth3			rth4			rlfc			rmfc			rsh1			rsh2			rsh3			rsh4			rlmal			rmmal			rcal			rtoe			rmt5			rmt1			lth1			lth2			lth4			lth3			llfc			lmfc			lsh1			lsh2			lsh3			lsh4			llmal			lmmal			lcal			ltoe			lmt1			lmt5			
		X1	Y1	Z1	X2	Y2	Z2	X3	Y3	Z3	X4	Y4	Z4	X5	Y5	Z5	X6	Y6	Z6	X7	Y7	Z7	X8	Y8	Z8	X9	Y9	Z9	X10	Y10	Z10	X11	Y11	Z11	X12	Y12	Z12	X13	Y13	Z13	X14	Y14	Z14	X15	Y15	Z15	X16	Y16	Z16	X17	Y17	Z17	X18	Y18	Z18	X19	Y19	Z19	X20	Y20	Z20	X21	Y21	Z21	X22	Y22	Z22	X23	Y23	Z23	X24	Y24	Z24	X25	Y25	Z25	X26	Y26	Z26	X27	Y27	Z27	X28	Y28	Z28	X29	Y29	Z29	X30	Y30	Z30	X31	Y31	Z31	X32	Y32	Z32	X33	Y33	Z33	X34	Y34	Z34	X35	Y35	Z35	X36	Y36	Z36	X37	Y37	Z37	X38	Y38	Z38	X39	Y39	Z39	X40	Y40	Z40	X41	Y41	Z41	X42	Y42	Z42	X43	Y43	Z43	X44	Y44	Z44	X45	Y45	Z45	X46	Y46	Z46	X47	Y47	Z47	X48	Y48	Z48	X49	Y49	Z49	
1250	6.2500	266.387543	1528.304199	350.791962	254.133499	1536.381714	4.112984	199.740417	1571.513184	173.719406	343.512085	1484.973145	172.295761	235.636551	1281.568726	535.535828	306.597504	1136.652344	743.641113	200.859390	1294.668213	-193.226501	234.120621	1160.175049	-430.973511	174.495132	1035.637451	181.349106	316.035522	1095.918823	31.802914	318.957550	1076.546753	317.285980	368.698822	1029.707275	63.553955	375.484650	1020.613281	284.923859	198.002609	1068.286255	224.564484	195.402924	1072.328125	135.277817	269.942017	923.330078	335.122925	242.138519	954.114807	11.046029	273.473846	825.044312	351.350769	285.733093	736.217529	350.355530	251.598007	655.976318	338.438141	322.259338	732.568665	341.678467	254.705276	507.542572	312.732269	247.254837	506.851135	211.706940	201.654160	410.092194	340.255981	217.200439	322.451141	331.174774	189.512772	242.029404	323.820007	249.484100	323.191803	308.423889	187.084595	109.556374	305.825470	212.843597	124.551094	227.948578	136.815598	62.388306	249.284729	424.678772	81.061523	309.367310	317.307159	44.845264	356.021667	350.571777	47.227268	242.575653	259.683655	822.342529	-10.388251	282.255798	739.512085	-4.391173	318.209656	739.456970	7.807861	257.248016	652.673767	6.640655	245.438904	517.079895	39.207851	238.460419	509.235657	139.248093	194.708374	400.150757	13.111207	209.988937	314.085724	23.110144	178.720459	231.070633	27.331196	242.273499	314.051056	43.600113	183.205627	108.839958	41.893272	211.816437	127.587639	115.182442	136.945831	57.404167	94.072472	425.030090	79.416481	39.358631	351.243500	48.209019	106.038734	312.839142	38.269257	-5.420074	
1251	6.2550	266.399292	1528.300659	350.798157	254.113464	1536.376831	4.146268	199.702530	1571.503174	173.757095	343.501099	1484.967163	172.297012	235.618118	1281.576050	535.554871	306.601746	1136.643799	743.638245	200.847717	1294.659302	-193.218964	234.096695	1160.154419	-430.953247	174.505035	1035.642334	181.354523	316.006317	1095.919556	31.806396	318.934082	1076.545410	317.270691	368.688141	1029.718262	63.562496	375.488220	1020.602478	284.923706	197.985733	1068.289551	224.571289	195.405380	1072.327393	135.286316	269.926727	923.323425	335.123596	242.125504	954.123718	11.057549	273.455627	825.037170	351.342896	285.745941	736.198914	350.336395	251.599030	655.978394	338.439026	322.253204	732.564758	341.673584	254.696884	507.535950	312.728638	247.233749	506.861755	211.694336	201.648987	410.081573	340.254700	217.208145	322.461578	331.169067	189.502533	242.029724	323.823486	249.490479	323.191864	308.413177	187.084793	109.552620	305.829224	212.847076	124.555969	227.941086	136.814331	62.397182	249.291000	424.669708	81.053452	309.348114	317.315430	44.835884	356.015930	350.570312	47.214741	242.571411	259.663757	822.345215	-10.374814	282.251068	739.507385	-4.377369	318.194702	739.451416	7.839595	257.230804	652.678467	6.652718	245.439880	517.081116	39.204021	238.454285	509.237579	139.254303	194.708328	400.135773	13.127240	209.974197	314.100891	23.093658	178.712738	231.088943	27.340132	242.282135	314.031494	43.597317	183.200378	108.860260	41.898464	211.810928	127.586914	115.177193	136.948685	57.398869	94.077415	425.043488	79.421822	39.358318	351.244934	48.206146	106.022537	312.839508	38.260338	-5.424437	
1252	6.2600	266.397797	1528.297363	350.799316	254.123108	1536.357056	4.135413	199.694748	1571.493286	173.772308	343.500610	1484.966919	172.299530	235.613052	1281.567871	535.563477	306.624847	1136.661499	743.658752	200.837250	1294.658691	-193.209885	234.073425	1160.149902	-430.941681	174.482254	1035.659912	181.361191	315.992950	1095.911621	31.818296	318.941101	1076.543701	317.292816	368.669861	1029.710815	63.565174	375.478973	1020.605713	284.929871	197.983490	1068.291138	224.580338	195.385757	1072.316040	135.285828	269.925293	923.319214	335.126617	242.104111	954.119690	11.066130	273.455963	825.044678	351.346985	285.729584	736.193909	350.339600	251.602188	655.979248	338.438110	322.250488	732.562073	341.673035	254.691406	507.522614	312.720734	247.260574	506.840149	211.728210	201.634018	410.082184	340.257477	217.210876	322.464355	331.189087	189.497681	242.019226	323.816437	249.480789	323.174927	308.425232	187.089340	109.567291	305.828369	212.841370	124.551735	227.959198	136.824020	62.394230	249.282562	424.686523	81.059563	309.366180	317.304749	44.844597	356.014771	350.570953	47.213390	242.572906	259.658112	822.331787	-10.369549	282.234650	739.526245	-4.394861	318.188324	739.448303	7.822275	257.206543	652.685669	6.632645	245.421097	517.084961	39.193600	238.457809	509.228271	139.256241	194.701828	400.155060	13.130401	209.982162	314.091339	23.105110	178.728928	231.074097	27.346371	242.283127	314.019836	43.614693	183.185242	108.857574	41.889488	211.825668	127.577461	115.178047	136.944565	57.405182	94.080246	425.038574	79.410553	39.364155	351.243378	48.207630	106.033928	312.837769	38.263290	-5.427316	
1253	6.2650	266.378387	1528.295166	350.790161	254.100220	1536.358398	4.147048	199.672394	1571.502930	173.779587	343.494568	1484.955933	172.327560	235.605957	1281.547485	535.572449	306.618744	1136.666992	743.670166	200.827759	1294.657593	-193.201385	234.049332	1160.121216	-430.924164	174.489044	1035.613281	181.385895	315.975189	1095.916504	31.818007	318.916351	1076.547974	317.294769	368.670441	1029.707642	63.565033	375.465637	1020.600281	284.929810	197.979034	1068.284668	224.584732	195.381638	1072.327271	135.310669	269.906708	923.317749	335.135559	242.105896	954.113831	11.058653	273.457977	825.042358	351.341614	285.719086	736.190552	350.336609	251.582626	655.973267	338.447266	322.250153	732.561401	341.673676	254.691559	507.522247	312.720520	247.214523	506.839691	211.707565	201.617447	410.104431	340.257019	217.214447	322.461578	331.161133	189.484131	242.022186	323.823181	249.479553	323.188904	308.430328	187.083878	109.557167	305.825409	212.847473	124.554642	227.960526	136.822052	62.382774	249.294571	424.673218	81.067764	309.353699	317.299377	44.839279	356.019470	350.566803	47.221359	242.562424	259.637512	822.339661	-10.372638	282.212341	739.515625	-4.382332	318.159424	739.476013	7.795781	257.186523	652.690796	6.627583	245.431747	517.083862	39.191387	238.428696	509.239197	139.256058	194.701920	400.150543	13.129101	209.965576	314.097473	23.102266	178.713623	231.066299	27.345596	242.280533	314.026886	43.616634	183.202942	108.855690	41.890144	211.826462	127.578796	115.177765	136.956604	57.389259	94.082787	425.036865	79.416992	39.358021	351.262787	48.209679	106.038292	312.837585	38.263367	-5.426786	
